<svg width="100" height="100" viewBox="0 0 100 100" fill="none" xmlns="http://www.w3.org/2000/svg">
<rect width="100" height="100" fill="white"/>
<path fill-rule="evenodd" clip-rule="evenodd" d="M16 0C7.16344 0 0 7.16345 0 16V84C0 92.8366 7.16345 100 16 100H84C92.8366 100 100 92.8366 100 84V16C100 7.16344 92.8366 0 84 0H16ZM38.8853 84.9865V85H65.0533C65.0027 84.9999 64.96 84.9998 64.9253 84.9997C64.8543 84.9995 64.8175 84.9994 64.8175 84.9992C63.5479 84.9453 62.8205 84.0246 62.8214 82.3582C62.8217 81.6889 62.8215 81.0196 62.8214 80.3503C62.8207 77.579 62.8199 74.8077 62.857 72.0371C62.9014 68.7026 62.5098 65.5188 60.0125 62.91C60.6186 62.7909 61.2151 62.6823 61.8035 62.5751L61.8039 62.575L61.804 62.575C63.0654 62.3453 64.2901 62.1222 65.4946 61.8178C70.7252 60.4951 75.1439 57.9306 77.5265 52.8697C80.1266 47.3485 80.8227 41.5312 78.9126 35.6567C78.502 34.3937 77.7667 33.2383 77.0299 32.0805L77.0299 32.0805C76.6424 31.4715 76.2544 30.8619 75.9131 30.2356C75.7137 29.8702 75.5545 29.342 75.6616 28.9713C76.665 25.4993 76.3995 22.0995 75.1403 18.7632C75.0177 18.4395 74.4511 18.0897 74.0849 18.0827C71.992 18.0453 70.0481 18.7241 68.2025 19.6264C67.3014 20.0674 66.4284 20.5651 65.5552 21.0628L65.5551 21.0628C64.8911 21.4413 64.2271 21.8199 63.5505 22.1736C63.1686 22.3736 62.6351 22.5111 62.2357 22.4146C55.3552 20.7456 48.4869 20.7386 41.6056 22.4084C41.18 22.512 40.5901 22.3641 40.2028 22.1265C37.3217 20.36 34.3969 18.7146 30.999 18.1524C30.9565 18.1452 30.9143 18.1365 30.8721 18.1278L30.872 18.1278C30.8122 18.1154 30.7525 18.1031 30.6917 18.095C28.9966 17.8635 28.8548 17.9462 28.3457 19.6074C27.3754 22.7704 27.2258 25.9423 28.2048 29.1411C28.2926 29.4273 28.1856 29.8981 27.9881 30.1278C24.0792 34.6763 23.3962 40.0043 24.1593 45.6961C24.6466 49.3301 25.7066 52.7445 28.0246 55.6613C30.8658 59.237 34.751 61.0374 39.0758 62.0381C40.0998 62.2755 41.1375 62.4558 42.2182 62.6435L42.2183 62.6436L42.219 62.6437C42.7232 62.7313 43.2367 62.8205 43.7625 62.9179C42.2754 64.4963 41.5375 66.2967 41.1425 68.2712C41.091 68.5253 40.7438 68.8037 40.4707 68.9186C35.5717 70.9784 31.2172 69.613 28.3883 65.1525C26.9576 62.8979 25.0886 61.2027 22.3858 60.6954C21.6976 60.5667 20.9352 60.6658 20.2374 60.8077C19.5457 60.9479 19.4638 61.4726 19.9016 61.9833C20.2365 62.3749 20.6193 62.7605 21.0571 63.0224C23.4014 64.4235 24.9068 66.5232 25.9058 68.978C27.5922 73.1217 30.844 74.9273 35.0757 75.171C36.3889 75.2467 37.7124 75.1503 39.0686 75.0516L39.069 75.0515C39.6942 75.006 40.3263 74.9599 40.9676 74.93C40.9676 75.7175 40.9738 76.5134 40.98 77.3151L40.98 77.3162C40.9952 79.2744 41.0106 81.267 40.9372 83.2567C40.8971 84.3357 40.0243 84.9734 38.8853 84.9865Z" fill="#F39A27"/>
</svg>
