<svg width="100" height="100" viewBox="0 0 100 100" fill="none" xmlns="http://www.w3.org/2000/svg">
<rect width="100" height="100" fill="white"/>
<path fill-rule="evenodd" clip-rule="evenodd" d="M16 0C7.16333 0 0 7.16345 0 16V84C0 92.8365 7.16333 100 16 100H84C92.8367 100 100 92.8365 100 84V16C100 7.16345 92.8367 0 84 0H16ZM38.8853 84.9866V85H65.0532L64.8174 84.9991C63.5479 84.9453 62.8206 84.0247 62.8213 82.3582C62.8218 81.689 62.8215 81.0197 62.8213 80.3503C62.8206 77.579 62.8198 74.8077 62.8569 72.0371C62.9014 68.7026 62.5098 65.5188 60.0125 62.9099C60.6187 62.7909 61.2153 62.6823 61.804 62.5751C63.0654 62.3453 64.29 62.1222 65.4946 61.8179C70.7251 60.4951 75.1438 57.9307 77.5264 52.8696C80.1267 47.3485 80.8228 41.5312 78.9126 35.6567C78.5022 34.3945 77.7676 33.2397 77.0315 32.0828L77.03 32.0806C76.7732 31.6772 76.5164 31.2737 76.2729 30.8652C76.1489 30.6569 76.0283 30.4471 75.9131 30.2356C75.7136 29.8702 75.5544 29.3419 75.6616 28.9713C76.665 25.4993 76.3994 22.0995 75.1404 18.7632C75.0178 18.4395 74.4512 18.0897 74.085 18.0828C71.9919 18.0453 70.0481 18.7241 68.2024 19.6265C67.3032 20.0665 66.4319 20.5631 65.5603 21.0598L65.5552 21.0627C64.8911 21.4413 64.2271 21.8198 63.5505 22.1736C63.1685 22.3737 62.635 22.5111 62.2356 22.4146C55.3552 20.7456 48.4868 20.7386 41.6055 22.4084C41.1799 22.512 40.5901 22.3641 40.2029 22.1265C37.3218 20.36 34.397 18.7146 30.999 18.1525C30.9565 18.1451 30.9143 18.1365 30.8721 18.1278C30.8123 18.1155 30.7524 18.1031 30.6917 18.095C28.9966 17.8635 28.8547 17.9463 28.3457 19.6074C27.3755 22.7704 27.2258 25.9423 28.2048 29.1411C28.2927 29.4272 28.1855 29.8981 27.988 30.1278C24.0793 34.6764 23.3962 40.0043 24.1592 45.6962C24.6465 49.3301 25.7065 52.7445 28.0247 55.6614C30.8657 59.2371 34.751 61.0374 39.0759 62.0381C40.0999 62.2755 41.1377 62.4558 42.2183 62.6436C42.5298 62.6976 42.845 62.7523 43.1641 62.8092C43.3618 62.8445 43.5613 62.8806 43.7625 62.918C42.2754 64.4963 41.5376 66.2966 41.1426 68.2712C41.0911 68.5253 40.7439 68.8037 40.4707 68.9186C35.5718 70.9784 31.2173 69.613 28.3884 65.1525C26.9578 62.8978 25.0886 61.2028 22.3857 60.6954C21.6978 60.5668 20.9353 60.6659 20.2373 60.8077C19.5457 60.9479 19.4639 61.4727 19.9016 61.9833C20.2366 62.3749 20.6194 62.7605 21.0571 63.0225C23.4014 64.4235 24.9067 66.5232 25.9058 68.978C27.5923 73.1217 30.844 74.9274 35.0757 75.171C36.3889 75.2467 37.7124 75.1504 39.0686 75.0515C39.6938 75.006 40.3262 74.96 40.9675 74.9301C40.9675 75.6832 40.9734 76.4441 40.9792 77.2104L40.98 77.3163C40.9951 79.2744 41.0105 81.2671 40.9373 83.2567C40.897 84.3357 40.0244 84.9734 38.8853 84.9866Z" fill="#333333"/>
</svg>
