<svg width="100" height="100" viewBox="0 0 100 100" fill="none" xmlns="http://www.w3.org/2000/svg">
<rect width="100" height="100" fill="white"/>
<path fill-rule="evenodd" clip-rule="evenodd" d="M16 0C7.16333 0 0 7.16345 0 16V84C0 92.8365 7.16333 100 16 100H84C92.8367 100 100 92.8365 100 84V16C100 7.16345 92.8367 0 84 0H16ZM79.9849 79.9976V80H67.5723V60.4974C67.5723 55.85 67.4773 49.89 61.105 49.89C54.6375 49.89 53.6475 54.9399 53.6475 60.1625V79.9976H41.2224V39.9399H53.1548V45.4025H53.3298C54.9873 42.255 59.0474 38.9349 65.0974 38.9349C77.6824 38.9349 80 47.2275 80 57.9926V79.9976H79.9849ZM20.99 39.9425H33.4299V80H20.99V39.9425ZM20 27.205C20 23.2275 23.2275 20 27.2051 20C31.1799 20 34.4075 23.2275 34.4099 27.205C34.4099 31.1825 31.1826 34.4775 27.2051 34.4775C23.2275 34.4775 20 31.1825 20 27.205Z" fill="#333333"/>
</svg>
