<svg width="100" height="100" viewBox="0 0 100 100" fill="none" xmlns="http://www.w3.org/2000/svg">
<rect width="100" height="100" fill="white"/>
<path fill-rule="evenodd" clip-rule="evenodd" d="M16 0C7.16344 0 0 7.16345 0 16V84C0 92.8366 7.16345 100 16 100H84C92.8366 100 100 92.8366 100 84V16C100 7.16344 92.8366 0 84 0H16ZM79.9849 79.9975V80H67.5724V60.4975C67.5724 55.85 67.4774 49.89 61.1049 49.89C54.6374 49.89 53.6474 54.94 53.6474 60.1625V79.9975H41.2224V39.94H53.1549V45.4025H53.3299C54.9874 42.255 59.0474 38.935 65.0974 38.935C77.6824 38.935 79.9999 47.2275 79.9999 57.9925V79.9975H79.9849ZM20.9899 39.9425H33.4299V80H20.9899V39.9425ZM20 27.205C20 23.2275 23.2275 20 27.205 20C31.18 20 34.4075 23.2275 34.41 27.205C34.41 31.1825 31.1825 34.4775 27.205 34.4775C23.2275 34.4775 20 31.1825 20 27.205Z" fill="#F39A27"/>
</svg>
