<svg width="100" height="100" viewBox="0 0 100 100" fill="none" xmlns="http://www.w3.org/2000/svg">
<rect width="100" height="100" fill="white"/>
<path fill-rule="evenodd" clip-rule="evenodd" d="M16 0C7.16344 0 0 7.16345 0 16V84C0 92.8366 7.16345 100 16 100H84C92.8366 100 100 92.8366 100 84V16C100 7.16344 92.8366 0 84 0H16ZM84 26.1397L78.5742 31.3464C78.1095 31.696 77.8715 32.2872 77.9707 32.8641V71.1387C77.8715 71.7128 78.1123 72.304 78.577 72.6564L83.8753 77.8603V79H57.208V77.8575L62.7047 72.5228C63.2373 71.9885 63.2373 71.8208 63.2373 71.0052V40.0802L47.9572 78.9005H45.8917L28.121 40.0802V66.0968C27.9652 67.1967 28.3307 68.2909 29.1042 69.0811L36.2442 77.7466V78.8863H16V77.7608L23.14 69.0811C23.8993 68.2938 24.2507 67.1797 24.0552 66.0968V36.0188C24.1373 35.1861 23.8143 34.3591 23.1967 33.7935L16.8585 26.1397V25H36.5672L51.8077 58.4459L65.2037 25H84V26.1397Z" fill="#F39A27"/>
</svg>
