<svg xmlns="http://www.w3.org/2000/svg" width="400.526" height="84.015" viewBox="0 0 400.526 84.015">
  <g id="jsdclogo02" transform="translate(-20 -27.012)">
    <path id="Path_1" data-name="Path 1" d="M152.542,161.764V156.82H150.76v-1.01h4.753v1.01h-1.782v4.944Z" transform="translate(-53.172 -52.383)" fill="#67696a"/>
    <path id="Path_2" data-name="Path 2" d="M161.521,155.81V158a1.675,1.675,0,0,1,1.325-.648,1.6,1.6,0,0,1,.707.149,1.188,1.188,0,0,1,.481.368,1.313,1.313,0,0,1,.214.505,4.3,4.3,0,0,1,.059.856v2.531h-1.141v-2.276a3.167,3.167,0,0,0-.065-.862.553.553,0,0,0-.226-.291.761.761,0,0,0-.416-.107.957.957,0,0,0-.505.137.8.8,0,0,0-.327.416,2.43,2.43,0,0,0-.107.826v2.157H160.38v-5.942Z" transform="translate(-57.084 -52.383)" fill="#67696a"/>
    <path id="Path_3" data-name="Path 3" d="M171.558,161.453l1.135.19a1.854,1.854,0,0,1-.7.957,2.056,2.056,0,0,1-1.188.327,1.937,1.937,0,0,1-1.664-.737,2.454,2.454,0,0,1-.428-1.485,2.412,2.412,0,0,1,.558-1.681,1.854,1.854,0,0,1,1.42-.594,1.931,1.931,0,0,1,1.521.636,2.822,2.822,0,0,1,.529,1.949h-2.852a1.141,1.141,0,0,0,.279.79.862.862,0,0,0,.654.279.707.707,0,0,0,.452-.143A.921.921,0,0,0,171.558,161.453Zm.065-1.153a1.111,1.111,0,0,0-.261-.755.772.772,0,0,0-.594-.255.784.784,0,0,0-.594.273,1.04,1.04,0,0,0-.244.737Z" transform="translate(-60.472 -53.445)" fill="#67696a"/>
    <path id="Path_4" data-name="Path 4" d="M182.235,158.536a1.343,1.343,0,0,1-.648-.517,1.384,1.384,0,0,1-.2-.719,1.432,1.432,0,0,1,.469-1.1,1.848,1.848,0,0,1,1.319-.434,1.872,1.872,0,0,1,1.319.434,1.432,1.432,0,0,1,.469,1.1,1.325,1.325,0,0,1-.214.743,1.4,1.4,0,0,1-.594.493,1.628,1.628,0,0,1,.755.594,1.551,1.551,0,0,1,.255.885,1.783,1.783,0,0,1-.529,1.337,1.9,1.9,0,0,1-1.4.517,2.121,2.121,0,0,1-1.355-.428,1.664,1.664,0,0,1-.636-1.379,1.747,1.747,0,0,1,.238-.885,1.521,1.521,0,0,1,.749-.642Zm.125,1.4a1.052,1.052,0,0,0,.244.737.778.778,0,0,0,.594.267.766.766,0,0,0,.594-.256,1.058,1.058,0,0,0,.232-.731.951.951,0,0,0-.238-.677.778.778,0,0,0-.594-.25.719.719,0,0,0-.624.285,1.075,1.075,0,0,0-.208.624Zm.107-2.549a.725.725,0,0,0,.2.535.788.788,0,0,0,1.034-.006.725.725,0,0,0,.19-.535.654.654,0,0,0-.7-.7.666.666,0,0,0-.719.707Z" transform="translate(-65.569 -52.364)" fill="#67696a"/>
    <path id="Path_5" data-name="Path 5" d="M191.454,157.531v.909h-.778v1.723a3.858,3.858,0,0,0,0,.594.238.238,0,0,0,.1.143.339.339,0,0,0,.19.053,1.533,1.533,0,0,0,.463-.107l.1.885a2.288,2.288,0,0,1-.9.172,1.367,1.367,0,0,1-.553-.107.772.772,0,0,1-.368-.267,1.028,1.028,0,0,1-.16-.446,5.606,5.606,0,0,1-.036-.8V158.44H189v-.909h.523v-.856l1.147-.665v1.521Z" transform="translate(-68.721 -52.464)" fill="#67696a"/>
    <path id="Path_6" data-name="Path 6" d="M195.951,155.81V158a1.676,1.676,0,0,1,1.319-.648,1.646,1.646,0,0,1,.713.149,1.188,1.188,0,0,1,.475.368,1.419,1.419,0,0,1,.22.505,4.3,4.3,0,0,1,.059.856v2.531H197.6v-2.276a3.447,3.447,0,0,0-.065-.862.535.535,0,0,0-.232-.291.725.725,0,0,0-.41-.107,1,1,0,0,0-.511.137.826.826,0,0,0-.327.416,2.619,2.619,0,0,0-.1.826v2.157H194.81v-5.942Z" transform="translate(-71.084 -52.383)" fill="#67696a"/>
    <path id="Path_7" data-name="Path 7" d="M209.813,155.81H211v3.773a3.749,3.749,0,0,1-.131,1.135,1.592,1.592,0,0,1-.63.832,2.086,2.086,0,0,1-1.188.315,1.782,1.782,0,0,1-1.355-.493,2.008,2.008,0,0,1-.481-1.444l1.135-.131a1.587,1.587,0,0,0,.149.719.648.648,0,0,0,.594.321.66.66,0,0,0,.594-.226,1.848,1.848,0,0,0,.166-.951Z" transform="translate(-76.127 -52.383)" fill="#67696a"/>
    <path id="Path_8" data-name="Path 8" d="M216.746,159.821l-1.034-.19a1.569,1.569,0,0,1,.594-.921,2.187,2.187,0,0,1,1.266-.3,2.727,2.727,0,0,1,1.135.178,1.141,1.141,0,0,1,.529.463,2.341,2.341,0,0,1,.154,1.022V161.4a4.709,4.709,0,0,0,.053.838,2.312,2.312,0,0,0,.2.594h-1.129a3.216,3.216,0,0,1-.107-.333.334.334,0,0,0-.042-.137,2.092,2.092,0,0,1-.624.428,1.818,1.818,0,0,1-.713.143,1.5,1.5,0,0,1-1.052-.362,1.188,1.188,0,0,1-.38-.915,1.277,1.277,0,0,1,.172-.654,1.135,1.135,0,0,1,.493-.434,3.612,3.612,0,0,1,.9-.267,6.72,6.72,0,0,0,1.111-.279V159.9a.594.594,0,0,0-.16-.463.981.981,0,0,0-.594-.143.677.677,0,0,0-.749.541Zm1.527.927c-.149.048-.38.107-.7.172a2.073,2.073,0,0,0-.624.2.463.463,0,0,0-.22.4.6.6,0,0,0,.636.588.992.992,0,0,0,.594-.2.689.689,0,0,0,.267-.374,2.258,2.258,0,0,0,.048-.559Z" transform="translate(-79.538 -53.435)" fill="#67696a"/>
    <path id="Path_9" data-name="Path 9" d="M225.041,162.884,223.3,158.57h1.188l.808,2.2.238.737.119-.374c.036-.119.077-.244.119-.362l.82-2.2h1.188l-1.687,4.314Z" transform="translate(-82.669 -53.503)" fill="#67696a"/>
    <path id="Path_10" data-name="Path 10" d="M233.017,159.821l-1.034-.19a1.569,1.569,0,0,1,.594-.921,2.187,2.187,0,0,1,1.266-.3,2.781,2.781,0,0,1,1.141.178,1.123,1.123,0,0,1,.523.463,2.341,2.341,0,0,1,.154,1.022V161.4a4.706,4.706,0,0,0,.053.838,2.579,2.579,0,0,0,.2.594h-1.129a3.221,3.221,0,0,1-.107-.333.783.783,0,0,0-.042-.137,2.092,2.092,0,0,1-.624.428,1.783,1.783,0,0,1-.713.143,1.509,1.509,0,0,1-1.052-.362,1.23,1.23,0,0,1-.38-.915,1.277,1.277,0,0,1,.172-.654,1.135,1.135,0,0,1,.5-.463,3.613,3.613,0,0,1,.9-.267,6.717,6.717,0,0,0,1.111-.279v-.119a.594.594,0,0,0-.16-.463.962.962,0,0,0-.594-.143.689.689,0,0,0-.755.541Zm1.527.927a6.849,6.849,0,0,1-.7.172,1.955,1.955,0,0,0-.594.2.469.469,0,0,0-.226.4.6.6,0,0,0,.636.588.992.992,0,0,0,.594-.2.737.737,0,0,0,.273-.374,2.376,2.376,0,0,0,.042-.559Z" transform="translate(-86.154 -53.435)" fill="#67696a"/>
    <path id="Path_11" data-name="Path 11" d="M240,159.745l1.188-.113a1.45,1.45,0,0,0,.428.868,1.3,1.3,0,0,0,.873.273,1.355,1.355,0,0,0,.873-.244.743.743,0,0,0,.3-.594.523.523,0,0,0-.125-.356,1,1,0,0,0-.434-.261c-.143-.048-.463-.137-.963-.261a3.155,3.155,0,0,1-1.355-.594,1.533,1.533,0,0,1-.547-1.188,1.551,1.551,0,0,1,.255-.856,1.628,1.628,0,0,1,.743-.594,2.97,2.97,0,0,1,1.188-.208,2.507,2.507,0,0,1,1.687.493,1.723,1.723,0,0,1,.594,1.313l-1.188.053a1.034,1.034,0,0,0-.333-.665,1.224,1.224,0,0,0-.761-.2,1.372,1.372,0,0,0-.82.214.434.434,0,0,0-.19.368.458.458,0,0,0,.178.362,3.232,3.232,0,0,0,1.105.4,5.71,5.71,0,0,1,1.3.428,1.628,1.628,0,0,1,.659.594,1.782,1.782,0,0,1-.85,2.573,3.41,3.41,0,0,1-1.3.214,2.567,2.567,0,0,1-1.735-.523A2.258,2.258,0,0,1,240,159.745Z" transform="translate(-89.46 -52.301)" fill="#67696a"/>
    <path id="Path_12" data-name="Path 12" d="M253.778,159.8l-1.123.2a.814.814,0,0,0-.261-.505.778.778,0,0,0-.523-.172.844.844,0,0,0-.677.3,1.48,1.48,0,0,0-.255.98,1.783,1.783,0,0,0,.255,1.087.856.856,0,0,0,.7.315.772.772,0,0,0,.535-.184,1.135,1.135,0,0,0,.291-.636l1.123.19a2.008,2.008,0,0,1-.671,1.188,2.056,2.056,0,0,1-1.331.4,1.979,1.979,0,0,1-1.509-.594,2.727,2.727,0,0,1,0-3.315,2,2,0,0,1,1.527-.594,2.1,2.1,0,0,1,1.254.339A1.884,1.884,0,0,1,253.778,159.8Z" transform="translate(-93.431 -53.456)" fill="#67696a"/>
    <path id="Path_13" data-name="Path 13" d="M259.387,162.79H258.24v-4.314h1.046v.594a1.872,1.872,0,0,1,.487-.594.933.933,0,0,1,.493-.137,1.468,1.468,0,0,1,.755.214l-.357,1a.992.992,0,0,0-.535-.19.647.647,0,0,0-.4.131.873.873,0,0,0-.261.481,6.638,6.638,0,0,0-.1,1.444Z" transform="translate(-96.876 -53.409)" fill="#67696a"/>
    <path id="Path_14" data-name="Path 14" d="M264.12,156.868V155.81h1.117v1.058Zm0,4.9V157.45h1.117v4.314Z" transform="translate(-99.267 -52.383)" fill="#67696a"/>
    <path id="Path_15" data-name="Path 15" d="M268.31,158.5h1.064v.636a1.646,1.646,0,0,1,.559-.529,1.544,1.544,0,0,1,.784-.2,1.646,1.646,0,0,1,1.277.594,2.377,2.377,0,0,1,.523,1.64,2.46,2.46,0,0,1-.529,1.682,1.646,1.646,0,0,1-1.277.594,1.438,1.438,0,0,1-.648-.143,2.128,2.128,0,0,1-.594-.487v2.175h-1.141Zm1.129,2.086a1.676,1.676,0,0,0,.285,1.075.885.885,0,0,0,.707.345.832.832,0,0,0,.66-.315,1.634,1.634,0,0,0,.267-1.046,1.587,1.587,0,0,0-.273-1.01.85.85,0,0,0-.677-.327.879.879,0,0,0-.7.321A1.438,1.438,0,0,0,269.439,160.59Z" transform="translate(-100.972 -53.438)" fill="#67696a"/>
    <path id="Path_16" data-name="Path 16" d="M278.9,157.531v.909h-.778v1.723a3.854,3.854,0,0,0,0,.594.238.238,0,0,0,.1.143.345.345,0,0,0,.2.053,1.539,1.539,0,0,0,.458-.107l.1.885a2.27,2.27,0,0,1-.9.172,1.39,1.39,0,0,1-.553-.107.754.754,0,0,1-.362-.267,1.027,1.027,0,0,1-.16-.446,5.351,5.351,0,0,1-.042-.8V158.44h-.523v-.909h.523v-.856l1.147-.665v1.521Z" transform="translate(-104.273 -52.464)" fill="#67696a"/>
    <path id="Path_17" data-name="Path 17" d="M286.52,155.809h2.2a4.5,4.5,0,0,1,1.135.113,1.991,1.991,0,0,1,.9.553,2.591,2.591,0,0,1,.594.963,4.374,4.374,0,0,1,.2,1.408,4.006,4.006,0,0,1-.184,1.266,2.584,2.584,0,0,1-.642,1.052,2.1,2.1,0,0,1-.844.475,3.637,3.637,0,0,1-1.064.125h-2.264Zm1.188,1.01v3.945h.9a3.376,3.376,0,0,0,.725-.059,1.087,1.087,0,0,0,.487-.25,1.254,1.254,0,0,0,.315-.594,3.868,3.868,0,0,0,.119-1.093,3.464,3.464,0,0,0-.119-1.058,1.4,1.4,0,0,0-.345-.594,1.189,1.189,0,0,0-.553-.279,5.794,5.794,0,0,0-.986-.053Z" transform="translate(-108.377 -52.382)" fill="#67696a"/>
    <path id="Path_18" data-name="Path 18" d="M299.241,161.453l1.141.19a1.883,1.883,0,0,1-.7.957,2.056,2.056,0,0,1-1.188.327,1.943,1.943,0,0,1-1.67-.737,2.5,2.5,0,0,1-.422-1.485,2.377,2.377,0,0,1,.558-1.682,1.848,1.848,0,0,1,1.42-.594,1.907,1.907,0,0,1,1.515.636,2.793,2.793,0,0,1,.535,1.949h-2.858a1.135,1.135,0,0,0,.273.79.885.885,0,0,0,.659.279.719.719,0,0,0,.452-.143A.915.915,0,0,0,299.241,161.453Zm.065-1.153a1.111,1.111,0,0,0-.255-.755.8.8,0,0,0-1.188.018,1.07,1.07,0,0,0-.238.737Z" transform="translate(-112.395 -53.445)" fill="#67696a"/>
    <path id="Path_19" data-name="Path 19" d="M305.921,162.884l-1.741-4.314h1.188l.814,2.2.232.737c.065-.19.1-.315.119-.374s.077-.244.125-.362l.82-2.2h1.188l-1.711,4.314Z" transform="translate(-115.558 -53.503)" fill="#67696a"/>
    <path id="Path_20" data-name="Path 20" d="M315.511,161.453l1.141.19a1.883,1.883,0,0,1-.7.957,2.056,2.056,0,0,1-1.188.327,1.931,1.931,0,0,1-1.664-.737,2.454,2.454,0,0,1-.428-1.485,2.377,2.377,0,0,1,.559-1.681,1.854,1.854,0,0,1,1.42-.594,1.931,1.931,0,0,1,1.521.636,2.822,2.822,0,0,1,.529,1.949h-2.858a1.189,1.189,0,0,0,.273.79.885.885,0,0,0,.66.279.719.719,0,0,0,.452-.143.915.915,0,0,0,.279-.487Zm.065-1.153a1.081,1.081,0,0,0-.256-.755.82.82,0,0,0-1.188,0,1.04,1.04,0,0,0-.244.737Z" transform="translate(-119.011 -53.445)" fill="#67696a"/>
    <path id="Path_21" data-name="Path 21" d="M321.39,161.772V155.83h1.141v5.942Z" transform="translate(-122.554 -52.391)" fill="#67696a"/>
    <path id="Path_22" data-name="Path 22" d="M325.179,160.6a2.377,2.377,0,0,1,.279-1.1,1.949,1.949,0,0,1,.8-.814,2.377,2.377,0,0,1,1.147-.279,2.157,2.157,0,0,1,1.6.636,2.389,2.389,0,0,1-.006,3.226,2.121,2.121,0,0,1-1.592.648,2.5,2.5,0,0,1-1.129-.267,1.884,1.884,0,0,1-.82-.79,2.632,2.632,0,0,1-.279-1.26Zm1.188.059a1.438,1.438,0,0,0,.3.986.974.974,0,0,0,.755.339.962.962,0,0,0,.749-.339,1.45,1.45,0,0,0,.3-.992,1.42,1.42,0,0,0-.3-.974.963.963,0,0,0-.749-.339.974.974,0,0,0-.755.339,1.426,1.426,0,0,0-.321.98Z" transform="translate(-124.097 -53.437)" fill="#67696a"/>
    <path id="Path_23" data-name="Path 23" d="M334.47,158.5h1.064v.636a1.663,1.663,0,0,1,.564-.529,1.515,1.515,0,0,1,.784-.2,1.64,1.64,0,0,1,1.272.594,2.376,2.376,0,0,1,.523,1.64,2.46,2.46,0,0,1-.523,1.682,1.658,1.658,0,0,1-1.283.594,1.456,1.456,0,0,1-.648-.143,2.211,2.211,0,0,1-.594-.487v2.175h-1.141Zm1.129,2.086a1.675,1.675,0,0,0,.291,1.075.879.879,0,0,0,.7.345.844.844,0,0,0,.665-.315,1.676,1.676,0,0,0,.261-1.046,1.551,1.551,0,0,0-.273-1.01.832.832,0,0,0-.671-.327.879.879,0,0,0-.7.321A1.438,1.438,0,0,0,335.6,160.59Z" transform="translate(-127.875 -53.438)" fill="#67696a"/>
    <path id="Path_24" data-name="Path 24" d="M345.691,161.453l1.141.19a1.883,1.883,0,0,1-.7.957,2.056,2.056,0,0,1-1.188.327,1.931,1.931,0,0,1-1.664-.737,2.454,2.454,0,0,1-.428-1.485,2.377,2.377,0,0,1,.559-1.682,1.854,1.854,0,0,1,1.42-.594,1.907,1.907,0,0,1,1.515.636,2.793,2.793,0,0,1,.535,1.949h-2.858a1.188,1.188,0,0,0,.273.79.885.885,0,0,0,.659.279.719.719,0,0,0,.452-.143A.915.915,0,0,0,345.691,161.453Zm.065-1.153a1.111,1.111,0,0,0-.256-.755.772.772,0,0,0-.594-.255.79.79,0,0,0-.594.273,1.069,1.069,0,0,0-.238.737Z" transform="translate(-131.284 -53.445)" fill="#67696a"/>
    <path id="Path_25" data-name="Path 25" d="M352.621,162.79H351.48v-4.314h1.064v.594a1.871,1.871,0,0,1,.487-.594.915.915,0,0,1,.493-.137,1.468,1.468,0,0,1,.755.214l-.357,1a.992.992,0,0,0-.535-.19.648.648,0,0,0-.4.131.915.915,0,0,0-.267.481,7.055,7.055,0,0,0-.1,1.444Z" transform="translate(-134.791 -53.409)" fill="#67696a"/>
    <path id="Path_26" data-name="Path 26" d="M366.055,161.772h-1.307l-.517-1.349h-2.377l-.487,1.349H360.09l2.317-5.942h1.272Zm-2.21-2.377-.838-2.187-.808,2.21Z" transform="translate(-138.294 -52.391)" fill="#67696a"/>
    <path id="Path_27" data-name="Path 27" d="M375.463,162.82h-1.141v-2.2a3.127,3.127,0,0,0-.077-.9.6.6,0,0,0-.238-.321.648.648,0,0,0-.392-.113.927.927,0,0,0-.535.16.838.838,0,0,0-.321.434,3.631,3.631,0,0,0-.089.992v1.949H371.53v-4.314h1.058v.636a1.783,1.783,0,0,1,2.115-.594,1.189,1.189,0,0,1,.475.345,1.272,1.272,0,0,1,.22.481,3.563,3.563,0,0,1,.065.766Z" transform="translate(-142.945 -53.44)" fill="#67696a"/>
    <path id="Path_28" data-name="Path 28" d="M384.363,162.822h-1.141v-2.2a3.126,3.126,0,0,0-.077-.9.594.594,0,0,0-.238-.321.647.647,0,0,0-.392-.113.945.945,0,0,0-.535.16.838.838,0,0,0-.321.434,3.632,3.632,0,0,0-.089.992v1.949H380.43v-4.314h1.064v.636a1.782,1.782,0,0,1,2.109-.594,1.187,1.187,0,0,1,.475.345,1.272,1.272,0,0,1,.22.481,3.559,3.559,0,0,1,.065.766Z" transform="translate(-146.564 -53.441)" fill="#67696a"/>
    <path id="Path_29" data-name="Path 29" d="M392.172,162.863v-.642a1.717,1.717,0,0,1-.624.541,1.681,1.681,0,0,1-.808.2,1.586,1.586,0,0,1-.778-.19,1.129,1.129,0,0,1-.5-.541,2.294,2.294,0,0,1-.154-.951V158.55h1.141v1.985a5.677,5.677,0,0,0,.059,1.117.594.594,0,0,0,.232.321.684.684,0,0,0,.422.119.891.891,0,0,0,.523-.16.832.832,0,0,0,.321-.4,4.754,4.754,0,0,0,.083-1.188V158.52h1.141v4.314Z" transform="translate(-150.173 -53.483)" fill="#67696a"/>
    <path id="Path_30" data-name="Path 30" d="M398.9,159.821l-1.034-.19a1.6,1.6,0,0,1,.594-.921,2.193,2.193,0,0,1,1.272-.3,2.768,2.768,0,0,1,1.135.178,1.123,1.123,0,0,1,.523.463,2.253,2.253,0,0,1,.154,1.022V161.4a4.7,4.7,0,0,0,.053.838,2.619,2.619,0,0,0,.208.594h-1.129c-.03-.071-.065-.184-.113-.333l-.036-.137a2.044,2.044,0,0,1-.63.428,1.783,1.783,0,0,1-.707.143,1.485,1.485,0,0,1-1.052-.362,1.188,1.188,0,0,1-.386-.915,1.224,1.224,0,0,1,.178-.654,1.117,1.117,0,0,1,.487-.434,3.565,3.565,0,0,1,.909-.267,6.446,6.446,0,0,0,1.105-.279V159.9a.594.594,0,0,0-.16-.463.951.951,0,0,0-.594-.143.837.837,0,0,0-.475.119.861.861,0,0,0-.3.4Zm1.527.927a6.649,6.649,0,0,1-.689.172,1.949,1.949,0,0,0-.594.2.469.469,0,0,0-.226.4.594.594,0,0,0,.178.416.63.63,0,0,0,.458.172.968.968,0,0,0,.594-.2.7.7,0,0,0,.273-.374,2.376,2.376,0,0,0,.042-.559Z" transform="translate(-153.606 -53.434)" fill="#67696a"/>
    <path id="Path_31" data-name="Path 31" d="M406.39,161.772V155.83h1.141v5.942Z" transform="translate(-157.118 -52.391)" fill="#67696a"/>
    <path id="Path_32" data-name="Path 32" d="M418.554,159.506l1.188.368a2.62,2.62,0,0,1-.891,1.45,2.81,2.81,0,0,1-3.529-.339,3.1,3.1,0,0,1-.766-2.216,3.244,3.244,0,0,1,.767-2.305,2.632,2.632,0,0,1,2.02-.826,2.466,2.466,0,0,1,1.782.648,2.281,2.281,0,0,1,.594,1.093l-1.188.285a1.248,1.248,0,0,0-.44-.731,1.266,1.266,0,0,0-.814-.267,1.361,1.361,0,0,0-1.076.475,2.341,2.341,0,0,0-.41,1.539,2.489,2.489,0,0,0,.4,1.61,1.319,1.319,0,0,0,1.058.475,1.188,1.188,0,0,0,.826-.3A1.782,1.782,0,0,0,418.554,159.506Z" transform="translate(-160.439 -52.312)" fill="#67696a"/>
    <path id="Path_33" data-name="Path 33" d="M424.879,160.6a2.377,2.377,0,0,1,.279-1.1,1.949,1.949,0,0,1,.8-.814,2.377,2.377,0,0,1,1.147-.279,2.157,2.157,0,0,1,1.6.636,2.389,2.389,0,0,1-.006,3.226,2.121,2.121,0,0,1-1.592.648,2.5,2.5,0,0,1-1.129-.267,1.883,1.883,0,0,1-.82-.79,2.632,2.632,0,0,1-.279-1.26Zm1.188.059a1.438,1.438,0,0,0,.3.986.974.974,0,0,0,.755.339.963.963,0,0,0,.749-.339,1.45,1.45,0,0,0,.3-.992,1.421,1.421,0,0,0-.3-.974.963.963,0,0,0-.749-.339.974.974,0,0,0-.755.339,1.426,1.426,0,0,0-.321.98Z" transform="translate(-164.638 -53.437)" fill="#67696a"/>
    <path id="Path_34" data-name="Path 34" d="M438.143,162.822H437v-2.2a3.459,3.459,0,0,0-.071-.9.7.7,0,0,0-.238-.321.683.683,0,0,0-.4-.113.945.945,0,0,0-.535.16.838.838,0,0,0-.321.434,3.625,3.625,0,0,0-.089.992v1.949H434.21v-4.314h1.064v.636a1.783,1.783,0,0,1,2.109-.594,1.188,1.188,0,0,1,.475.345,1.271,1.271,0,0,1,.22.481,3.565,3.565,0,0,1,.065.766Z" transform="translate(-168.433 -53.441)" fill="#67696a"/>
    <path id="Path_35" data-name="Path 35" d="M442.29,157.368h.63v-.339a2.156,2.156,0,0,1,.119-.814.927.927,0,0,1,.428-.44,1.705,1.705,0,0,1,.784-.166,3.1,3.1,0,0,1,.957.149l-.155.8a2.079,2.079,0,0,0-.529-.065.464.464,0,0,0-.351.113.677.677,0,0,0-.107.446v.3h.85v.9h-.85v3.416H442.92v-3.416h-.63Z" transform="translate(-171.717 -52.301)" fill="#67696a"/>
    <path id="Path_36" data-name="Path 36" d="M450.4,161.453l1.141.19a1.883,1.883,0,0,1-.7.957,2.056,2.056,0,0,1-1.188.327,1.931,1.931,0,0,1-1.664-.737,2.454,2.454,0,0,1-.428-1.485,2.377,2.377,0,0,1,.559-1.681,1.854,1.854,0,0,1,1.42-.594,1.931,1.931,0,0,1,1.521.636,2.822,2.822,0,0,1,.529,1.949h-2.858a1.188,1.188,0,0,0,.273.79.885.885,0,0,0,.659.279.719.719,0,0,0,.452-.143.915.915,0,0,0,.279-.487Zm.065-1.153a1.082,1.082,0,0,0-.255-.755.772.772,0,0,0-.594-.256.784.784,0,0,0-.594.273,1.04,1.04,0,0,0-.244.737Z" transform="translate(-173.862 -53.445)" fill="#67696a"/>
    <path id="Path_37" data-name="Path 37" d="M457.337,162.79H456.19v-4.314h1.075v.594a1.872,1.872,0,0,1,.487-.594.933.933,0,0,1,.493-.137,1.467,1.467,0,0,1,.755.214l-.356,1a.992.992,0,0,0-.535-.19.647.647,0,0,0-.4.131.874.874,0,0,0-.262.481,6.636,6.636,0,0,0-.1,1.444Z" transform="translate(-177.37 -53.409)" fill="#67696a"/>
    <path id="Path_38" data-name="Path 38" d="M464.337,161.453l1.135.19a1.842,1.842,0,0,1-.689.957,2.067,2.067,0,0,1-1.188.327,1.943,1.943,0,0,1-1.67-.737,2.454,2.454,0,0,1-.428-1.485,2.377,2.377,0,0,1,.564-1.682,1.842,1.842,0,0,1,1.414-.594,1.919,1.919,0,0,1,1.521.636,2.852,2.852,0,0,1,.535,1.949h-2.864a1.188,1.188,0,0,0,.279.79.868.868,0,0,0,.66.279.689.689,0,0,0,.446-.143A.921.921,0,0,0,464.337,161.453Zm.065-1.153a1.111,1.111,0,0,0-.255-.755.8.8,0,0,0-1.188.018,1.04,1.04,0,0,0-.238.737Z" transform="translate(-179.527 -53.445)" fill="#67696a"/>
    <path id="Path_39" data-name="Path 39" d="M474.127,162.82h-1.141v-2.2a3.457,3.457,0,0,0-.071-.9.594.594,0,0,0-.238-.321.671.671,0,0,0-.4-.113.909.909,0,0,0-.529.16.82.82,0,0,0-.327.434,3.975,3.975,0,0,0-.083.992v1.949H470.2v-4.314h1.069v.636a1.783,1.783,0,0,1,2.115-.594,1.189,1.189,0,0,1,.469.345,1.284,1.284,0,0,1,.226.481,3.618,3.618,0,0,1,.059.766Z" transform="translate(-183.068 -53.44)" fill="#67696a"/>
    <path id="Path_40" data-name="Path 40" d="M482.7,159.8l-1.123.2a.808.808,0,0,0-.255-.505.79.79,0,0,0-.523-.172.868.868,0,0,0-.683.3,1.521,1.521,0,0,0-.25.98,1.747,1.747,0,0,0,.255,1.087.856.856,0,0,0,.689.315.761.761,0,0,0,.535-.184,1.1,1.1,0,0,0,.291-.636l1.123.19a1.979,1.979,0,0,1-.671,1.188,2.038,2.038,0,0,1-1.325.4,1.967,1.967,0,0,1-1.509-.594,2.288,2.288,0,0,1-.564-1.652,2.329,2.329,0,0,1,.564-1.664,2,2,0,0,1,1.527-.594,2.092,2.092,0,0,1,1.254.339,1.854,1.854,0,0,1,.665,1Z" transform="translate(-186.517 -53.456)" fill="#67696a"/>
    <path id="Path_41" data-name="Path 41" d="M489.511,161.453l1.141.19a1.884,1.884,0,0,1-.7.957,2.056,2.056,0,0,1-1.188.327,1.931,1.931,0,0,1-1.664-.737,2.453,2.453,0,0,1-.428-1.485,2.376,2.376,0,0,1,.559-1.682,1.854,1.854,0,0,1,1.42-.594,1.907,1.907,0,0,1,1.515.636,2.793,2.793,0,0,1,.535,1.949h-2.858a1.188,1.188,0,0,0,.273.79.885.885,0,0,0,.66.279.719.719,0,0,0,.452-.143.915.915,0,0,0,.279-.487Zm.065-1.153a1.081,1.081,0,0,0-.255-.755.772.772,0,0,0-.594-.256.79.79,0,0,0-.594.273,1.069,1.069,0,0,0-.238.737Z" transform="translate(-189.766 -53.445)" fill="#67696a"/>
    <path id="Path_42" data-name="Path 42" d="M499.62,156.868V155.81h1.147v1.058Zm0,4.9V157.45h1.147v4.314Z" transform="translate(-195.028 -52.383)" fill="#67696a"/>
    <path id="Path_43" data-name="Path 43" d="M507.783,162.82h-1.141v-2.2a3.125,3.125,0,0,0-.077-.9.594.594,0,0,0-.238-.321.648.648,0,0,0-.392-.113.927.927,0,0,0-.535.16.838.838,0,0,0-.321.434,3.631,3.631,0,0,0-.089.992v1.949H503.85v-4.314h1.058v.636a1.783,1.783,0,0,1,2.115-.594,1.189,1.189,0,0,1,.475.345,1.271,1.271,0,0,1,.22.481,3.567,3.567,0,0,1,.065.766Z" transform="translate(-196.751 -53.44)" fill="#67696a"/>
    <path id="Path_44" data-name="Path 44" d="M518.063,161.764V156.82H516.28v-1.01h4.753v1.01h-1.782v4.944Z" transform="translate(-201.806 -52.383)" fill="#67696a"/>
    <path id="Path_45" data-name="Path 45" d="M525.524,159.821l-1.034-.19a1.6,1.6,0,0,1,.594-.921,2.192,2.192,0,0,1,1.271-.3,2.769,2.769,0,0,1,1.135.178,1.123,1.123,0,0,1,.523.463,2.251,2.251,0,0,1,.154,1.022V161.4a4.711,4.711,0,0,0,.054.838,2.375,2.375,0,0,0,.208.594H527.3a1.972,1.972,0,0,0-.113-.333.784.784,0,0,0-.059-.178,1.955,1.955,0,0,1-.594.428,1.782,1.782,0,0,1-.707.143,1.485,1.485,0,0,1-1.052-.362,1.189,1.189,0,0,1-.386-.915,1.225,1.225,0,0,1,.178-.654,1.118,1.118,0,0,1,.487-.434,3.566,3.566,0,0,1,.909-.267,6.445,6.445,0,0,0,1.105-.279v-.119a.594.594,0,0,0-.16-.463.963.963,0,0,0-.594-.143.838.838,0,0,0-.475.119.862.862,0,0,0-.315.446Zm1.527.927a6.647,6.647,0,0,1-.689.172,1.948,1.948,0,0,0-.624.2.469.469,0,0,0-.226.4.6.6,0,0,0,.636.588.968.968,0,0,0,.594-.2.7.7,0,0,0,.273-.374,2.371,2.371,0,0,0,.042-.559Z" transform="translate(-205.103 -53.434)" fill="#67696a"/>
    <path id="Path_46" data-name="Path 46" d="M533,156.868V155.81h1.147v1.058Zm0,4.9V157.45h1.147v4.314Z" transform="translate(-208.601 -52.383)" fill="#67696a"/>
    <path id="Path_47" data-name="Path 47" d="M537.667,162.884,536.3,158.57h1.111l.808,2.828.743-2.828h1.1l.719,2.828.826-2.828h1.123l-1.384,4.314h-1.064l-.749-2.775-.731,2.775Z" transform="translate(-209.949 -53.503)" fill="#67696a"/>
    <path id="Path_48" data-name="Path 48" d="M549.156,159.821l-1.034-.19a1.569,1.569,0,0,1,.594-.921,2.187,2.187,0,0,1,1.266-.3,2.78,2.78,0,0,1,1.141.178,1.188,1.188,0,0,1,.523.463,2.34,2.34,0,0,1,.155,1.022V161.4a4.694,4.694,0,0,0,.054.838,2.307,2.307,0,0,0,.2.594h-1.129a3.227,3.227,0,0,1-.107-.333.335.335,0,0,0-.042-.137,2.094,2.094,0,0,1-.594.428,1.783,1.783,0,0,1-.713.143,1.5,1.5,0,0,1-1.052-.362,1.189,1.189,0,0,1-.38-.915,1.279,1.279,0,0,1,.172-.654,1.134,1.134,0,0,1,.493-.434,3.61,3.61,0,0,1,.9-.267,6.719,6.719,0,0,0,1.111-.279V159.9a.594.594,0,0,0-.16-.463.981.981,0,0,0-.594-.143.677.677,0,0,0-.749.541Zm1.527.927c-.148.048-.38.107-.7.172a1.955,1.955,0,0,0-.594.2.458.458,0,0,0-.226.4.6.6,0,0,0,.636.588.992.992,0,0,0,.594-.2.736.736,0,0,0,.273-.374,2.723,2.723,0,0,0,.042-.559Z" transform="translate(-214.719 -53.435)" fill="#67696a"/>
    <path id="Path_49" data-name="Path 49" d="M560.537,162.819H559.4v-2.2a3.457,3.457,0,0,0-.071-.9.653.653,0,0,0-.238-.321.672.672,0,0,0-.4-.113.909.909,0,0,0-.529.16.82.82,0,0,0-.327.434,3.978,3.978,0,0,0-.083.992v1.949H556.61v-4.314h1.058v.636a1.723,1.723,0,0,1,1.42-.731,1.782,1.782,0,0,1,.7.137,1.189,1.189,0,0,1,.469.345,1.283,1.283,0,0,1,.226.481,3.622,3.622,0,0,1,.059.766Z" transform="translate(-218.205 -53.438)" fill="#67696a"/>
    <rect id="Rectangle_2" data-name="Rectangle 2" width="14.854" height="59.417" transform="translate(120.868 27.302)" fill="#ffc800"/>
    <path id="Path_50" data-name="Path 50" d="M215,86.917A29.709,29.709,0,0,0,215,27.5" transform="translate(-79.305 -0.198)" fill="#ff4981"/>
    <path id="Path_51" data-name="Path 51" d="M215,82.209A14.854,14.854,0,0,0,215,52.5" transform="translate(-79.298 -10.375)" fill="#67696a"/>
    <rect id="Rectangle_3" data-name="Rectangle 3" width="17.825" height="59.417" transform="translate(46.738 27.302)" fill="#ffc800"/>
    <path id="Path_52" data-name="Path 52" d="M20,90.5a22.283,22.283,0,0,0,44.563,0" transform="translate(0 -25.834)" fill="#ff4981"/>
    <path id="Path_53" data-name="Path 53" d="M65,112.336A22.293,22.293,0,0,0,82.825,90.5H65Z" transform="translate(-18.262 -25.834)" fill="#67696a"/>
    <path id="Path_54" data-name="Path 54" d="M287.851,82.453A29.708,29.708,0,1,1,317.559,31" transform="translate(-102.899 0)" fill="#0089b8"/>
    <path id="Path_55" data-name="Path 55" d="M316.27,85.745A29.708,29.708,0,1,1,287.679,33.66" transform="translate(-102.601 -2.698)" fill="#00a580"/>
    <path id="Path_56" data-name="Path 56" d="M275.933,74.01a29.572,29.572,0,0,0,11.432,11.557l14.747-25.549L287.65,33.69a29.709,29.709,0,0,0-11.717,40.32Z" transform="translate(-102.593 -2.71)" fill="#67696a"/>
    <rect id="Rectangle_4" data-name="Rectangle 4" width="44.563" height="39.215" rx="19.608" transform="translate(278.074 27.302)" fill="#f3dc1d"/>
    <rect id="Rectangle_5" data-name="Rectangle 5" width="44.563" height="39.215" rx="19.608" transform="translate(278.074 47.452)" fill="#0099b4"/>
    <rect id="Rectangle_6" data-name="Rectangle 6" width="44.563" height="39.215" rx="19.608" transform="translate(278.074 37.403)" fill="#67696a"/>
    <rect id="Rectangle_7" data-name="Rectangle 7" width="22.578" height="59.417" transform="translate(338.531 27.302)" fill="#67696a"/>
    <path id="Path_57" data-name="Path 57" d="M584.5,117V101.63L569.13,117Z" transform="translate(-223.392 -30.355)" fill="#de3f37"/>
    <path id="Path_58" data-name="Path 58" d="M557,55.349,579.578,32.77V27.5H557Z" transform="translate(-218.469 -0.198)" fill="#b2cc39"/>
    <path id="Path_59" data-name="Path 59" d="M620,90.5a22.283,22.283,0,0,0,44.563,0" transform="translate(-244.037 -25.834)" fill="#0099b4"/>
    <path id="Path_60" data-name="Path 60" d="M649.114,27.5H635.448c-8.5,0-15.448,5.27-15.448,11.711V45.5c0,6.441,6.958,11.711,15.448,11.711h13.666c8.5,0,15.448-5.27,15.448-11.711V39.211C664.563,32.77,657.6,27.5,649.114,27.5Z" transform="translate(-244.037 -0.198)" fill="#f3dc1d"/>
    <path id="Path_61" data-name="Path 61" d="M667.377,27.5H665V86.768a22.293,22.293,0,0,0,17.825-21.836V39.211C682.825,32.77,675.867,27.5,667.377,27.5Z" transform="translate(-262.299 -0.198)" fill="#67696a"/>
    <path id="Path_62" data-name="Path 62" d="M147.709,59.946l-24.86,22.477-8.009-8.586L139.7,51.36Z" transform="translate(-38.489 -9.912)" fill="#67696a"/>
    <path id="Path_63" data-name="Path 63" d="M143.555,34.576a22.448,22.448,0,0,0-31.372-1.319,21.64,21.64,0,0,0-1.337,30.9" transform="translate(-34.496 -0.198)" fill="#00a580"/>
    <path id="Path_64" data-name="Path 64" d="M147.819,65.81a21.64,21.64,0,0,1-1.337,30.9,22.448,22.448,0,0,1-31.372-1.319" transform="translate(-38.599 -15.8)" fill="#0089b8"/>
    <path id="Path_65" data-name="Path 65" d="M362.25,49.781a22.281,22.281,0,1,1,44.563,0" transform="translate(-139.202 -0.198)" fill="#b2cc39"/>
    <path id="Path_66" data-name="Path 66" d="M399.5,27.5a22.281,22.281,0,0,1,0,44.563" transform="translate(-154.333 -0.198)" fill="#67696a"/>
    <rect id="Rectangle_8" data-name="Rectangle 8" width="44.563" height="14.854" transform="translate(222.899 71.792)" fill="#de3f37"/>
  </g>
</svg>
